<svg width="24" height="24" viewBox="0 0 24 24" fill="none" xmlns="http://www.w3.org/2000/svg">
<path d="M23.9537 13.1084C23.7382 10.941 22.7699 8.89761 21.2271 7.35469C19.9085 6.03622 18.2947 5.18894 16.5966 4.8122V3.62118C17.2902 3.44863 17.8057 2.82082 17.8057 2.07461C17.8057 1.19578 17.0908 0.480835 16.2119 0.480835H12.8369C11.958 0.480835 11.2431 1.19578 11.2431 2.07461C11.2431 2.82078 11.7586 3.44858 12.4522 3.62118V4.81553C10.7592 5.19386 9.15075 6.03997 7.83598 7.35474C7.54826 7.64246 7.28294 7.94429 7.04008 8.25799C7.02831 8.2571 7.01655 8.25621 7.00455 8.25621H3.66414C3.40529 8.25621 3.19538 8.46607 3.19538 8.72496C3.19538 8.98386 3.40529 9.19372 3.66414 9.19372H6.40224C6.05855 9.76912 5.78142 10.3734 5.57048 10.9954H0.468757C0.20991 10.9954 0 11.2053 0 11.4642C0 11.7231 0.20991 11.933 0.468757 11.933H5.30558C5.17049 12.526 5.09295 13.1295 5.07294 13.7347H3.00005C2.7412 13.7347 2.53129 13.9446 2.53129 14.2035C2.53129 14.4624 2.7412 14.6722 3.00005 14.6722H5.08789C5.12746 15.279 5.225 15.8826 5.38058 16.474H2.34379C2.08494 16.474 1.87503 16.6839 1.87503 16.9427C1.87503 17.2016 2.08494 17.4115 2.34379 17.4115H5.67975C6.1396 18.628 6.85825 19.7681 7.83598 20.7459C9.38035 22.2902 11.4258 23.2588 13.5955 23.4731C13.9052 23.5037 14.2151 23.5188 14.5245 23.5188C16.3537 23.5188 18.1597 22.9895 19.692 21.9916C19.909 21.8503 19.9703 21.5599 19.829 21.343C19.6878 21.126 19.3974 21.0647 19.1804 21.206C15.8261 23.3902 11.3339 22.9179 8.4989 20.083C5.1725 16.7566 5.1725 11.3441 8.4989 8.0177C11.8252 4.69135 17.2377 4.69135 20.5641 8.0177C23.3954 10.849 23.8702 15.3374 21.6932 18.69C21.5522 18.9072 21.6139 19.1975 21.831 19.3385C22.0482 19.4795 22.3384 19.4177 22.4794 19.2006C23.6426 17.4093 24.1662 15.2457 23.9537 13.1084ZM12.1806 2.07466C12.1806 1.71278 12.475 1.4184 12.8369 1.4184H16.2119C16.5738 1.4184 16.8682 1.71278 16.8682 2.07466C16.8682 2.43654 16.5738 2.73092 16.2119 2.73092H16.1278H12.9209H12.8369C12.475 2.73092 12.1806 2.43649 12.1806 2.07466ZM13.3897 4.65437V3.66843H15.6591V4.65268C14.9055 4.56305 14.1431 4.56362 13.3897 4.65437Z" fill="#D9B346"/>
<path d="M20.8953 19.9454C20.7715 19.9454 20.651 19.9956 20.5639 20.0828C20.4762 20.17 20.4265 20.2909 20.4265 20.4142C20.4265 20.5375 20.4762 20.6584 20.5639 20.7456C20.651 20.8332 20.7716 20.8829 20.8953 20.8829C21.0185 20.8829 21.139 20.8332 21.2267 20.7456C21.3139 20.6584 21.364 20.5375 21.364 20.4142C21.364 20.2909 21.3139 20.17 21.2267 20.0828C21.139 19.9956 21.0185 19.9454 20.8953 19.9454Z" fill="#D9B346"/>
<path d="M14.531 6.77856C10.5213 6.77856 7.25919 10.0406 7.25919 14.0504C7.25919 18.0601 10.5213 21.3221 14.531 21.3221C18.5406 21.3221 21.8028 18.0601 21.8028 14.0504C21.8028 10.0406 18.5406 6.77856 14.531 6.77856ZM14.531 20.3846C11.0382 20.3846 8.1967 17.5431 8.1967 14.0504C8.1967 10.5576 11.0382 7.71608 14.531 7.71608C18.0237 7.71608 20.8652 10.5576 20.8652 14.0504C20.8652 17.5431 18.0237 20.3846 14.531 20.3846Z" fill="#D9B346"/>
<path d="M17.496 10.422L15.1742 12.7437C14.9801 12.6477 14.7617 12.5934 14.5308 12.5934C14.2999 12.5934 14.0816 12.6477 13.8874 12.7437L12.8483 11.7046C12.6652 11.5215 12.3685 11.5215 12.1854 11.7046C12.0023 11.8876 12.0023 12.1844 12.1854 12.3675L13.2244 13.4066C13.1284 13.6007 13.0742 13.8191 13.0742 14.05C13.0742 14.8532 13.7276 15.5066 14.5308 15.5066C15.334 15.5066 15.9874 14.8532 15.9874 14.05C15.9874 13.8191 15.9332 13.6007 15.8372 13.4066L18.0908 11.153L18.1589 11.0849C18.3419 10.9018 18.3419 10.605 18.1589 10.422C17.9759 10.2389 17.6791 10.2389 17.496 10.422ZM14.5308 14.5691C14.2446 14.5691 14.0117 14.3363 14.0117 14.05C14.0117 13.7638 14.2446 13.5309 14.5308 13.5309C14.817 13.5309 15.0499 13.7638 15.0499 14.05C15.0499 14.3363 14.817 14.5691 14.5308 14.5691Z" fill="#D9B346"/>
<path d="M19.5426 13.5872H19.1083C18.8494 13.5872 18.6395 13.797 18.6395 14.0559C18.6395 14.3148 18.8494 14.5247 19.1083 14.5247H19.5426C19.8014 14.5247 20.0113 14.3148 20.0113 14.0559C20.0113 13.797 19.8014 13.5872 19.5426 13.5872Z" fill="#D9B346"/>
<path d="M9.95299 13.5759H9.51874C9.25989 13.5759 9.04999 13.7858 9.04999 14.0447C9.04999 14.3036 9.25989 14.5134 9.51874 14.5134H9.95299C10.2118 14.5134 10.4217 14.3036 10.4217 14.0447C10.4217 13.7858 10.2118 13.5759 9.95299 13.5759Z" fill="#D9B346"/>
<path d="M14.5379 9.94109C14.7968 9.94109 15.0067 9.73123 15.0067 9.47234V9.03809C15.0067 8.7792 14.7968 8.56934 14.5379 8.56934C14.2791 8.56934 14.0692 8.7792 14.0692 9.03809V9.47234C14.0692 9.73123 14.2791 9.94109 14.5379 9.94109Z" fill="#D9B346"/>
<path d="M14.5266 18.1589C14.2678 18.1589 14.0579 18.3688 14.0579 18.6277V19.0619C14.0579 19.3208 14.2678 19.5307 14.5266 19.5307C14.7855 19.5307 14.9954 19.3208 14.9954 19.0619V18.6277C14.9954 18.3688 14.7855 18.1589 14.5266 18.1589Z" fill="#D9B346"/>
<path d="M0.46875 16.4738C0.345469 16.4738 0.224531 16.5239 0.137344 16.6111C0.0501563 16.6983 0 16.8192 0 16.9425C0 17.0663 0.0501094 17.1867 0.137344 17.2739C0.224578 17.3611 0.345469 17.4113 0.46875 17.4113C0.592031 17.4113 0.712969 17.3611 0.800109 17.2739C0.887297 17.1867 0.9375 17.0658 0.9375 16.9425C0.9375 16.8192 0.887344 16.6983 0.800109 16.6111C0.712969 16.5239 0.592031 16.4738 0.46875 16.4738Z" fill="#D9B346"/>
</svg>
