<svg width="24" height="24" viewBox="0 0 24 24" fill="none" xmlns="http://www.w3.org/2000/svg">
<g clip-path="url(#clip0_2_108)">
<path d="M7.62626 9.35668C7.56228 9.23111 7.43708 9.1487 7.29669 9.13952L3.93175 8.91513C3.75738 8.89792 3.59618 9.00592 3.53257 9.1683L1.10676 15.3678C1.04156 15.5342 1.09477 15.7234 1.23717 15.8318C1.30837 15.8862 1.39397 15.9134 1.47914 15.9134C1.56351 15.9134 1.64793 15.887 1.71913 15.8334L3.73258 14.3236L4.90491 14.5579C5.09612 14.5959 5.28727 14.4911 5.35688 14.3084C5.98645 12.6593 6.74437 11.1258 7.60869 9.75113C7.6835 9.63184 7.69029 9.48184 7.62626 9.35668ZM4.73209 13.7075L3.71379 13.504C3.6026 13.482 3.48659 13.5084 3.39541 13.5763L2.36389 14.3499L4.17053 9.73262L6.58555 9.8934C5.88961 11.0714 5.26805 12.3504 4.73209 13.7075Z" fill="#D9B346"/>
<path d="M15.085 20.0698L14.8606 16.7045C14.851 16.5637 14.7686 16.4385 14.643 16.3745C14.5178 16.3105 14.3678 16.3169 14.2487 16.3921C12.8736 17.2564 11.3405 18.0143 9.69143 18.6439C9.50904 18.713 9.40343 18.9042 9.44187 19.0958L9.67624 20.2682L8.16636 22.2812C8.05916 22.4244 8.05958 22.6212 8.16796 22.7636C8.24516 22.8651 8.36394 22.9215 8.48633 22.9215C8.53513 22.9215 8.58434 22.9123 8.6323 22.8947L14.8318 20.4689C14.9942 20.4054 15.0966 20.2438 15.085 20.0698ZM9.6498 21.6365L10.4233 20.605C10.4913 20.5142 10.5177 20.3982 10.4953 20.2866L10.2918 19.2687C11.6492 18.7327 12.9279 18.1112 14.1058 17.4152L14.267 19.8298L9.6498 21.6365Z" fill="#D9B346"/>
<path d="M11.5984 12.0004H8.90341C8.75824 12.0004 8.62464 12.0792 8.55382 12.206L5.17126 18.2839C5.08327 18.4423 5.11285 18.6407 5.24326 18.7663C5.31966 18.8399 5.42002 18.8783 5.52085 18.8783C5.59205 18.8783 5.66363 18.8595 5.72761 18.8203L11.8056 15.1422C11.9251 15.0698 11.9983 14.9402 11.9983 14.8002V12.4003C11.9984 12.1796 11.8192 12.0004 11.5984 12.0004ZM11.1985 14.575L6.60323 17.356L9.13825 12.8007V12.8003H11.1985V14.575Z" fill="#D9B346"/>
<path d="M23.9806 0.385606C23.9642 0.190842 23.8098 0.0364372 23.615 0.0200311C23.4822 0.00962497 10.3108 -0.909914 4.60966 14.0226C4.55327 14.1702 4.58885 14.3365 4.70046 14.4482L6.6023 16.35C6.6915 16.4392 6.81628 16.48 6.94148 16.4632C7.06589 16.4452 7.17468 16.37 7.23548 16.26L9.14093 12.8003H11.2V14.5797L7.71946 16.7772C7.61666 16.8424 7.54907 16.9504 7.53548 17.0712C7.52188 17.192 7.56426 17.3123 7.65027 17.3983L9.55211 19.3002C9.62852 19.3766 9.73052 19.4174 9.83491 19.4174C9.88291 19.4174 9.93128 19.409 9.97769 19.391C24.9109 13.6894 23.9918 0.518026 23.9806 0.385606ZM21.8823 7.4819C20.4788 10.9544 17.2671 15.6753 9.93363 18.5507L8.56972 17.1868L11.8135 15.1389C11.9294 15.0653 11.9999 14.9377 11.9999 14.8005V12.4007C11.9999 12.1799 11.8207 12.0007 11.5999 12.0007H8.90407C8.75811 12.0007 8.62409 12.0803 8.55369 12.2079L6.79102 15.4084L5.44994 14.0669C10.4548 1.29914 21.1228 0.776774 23.1966 0.805976C23.2114 1.73873 23.1258 4.40491 21.8823 7.4819Z" fill="#D9B346"/>
<path d="M6.85142 17.6658C6.76461 17.5506 6.62624 17.4946 6.49063 17.509C6.50464 17.373 6.44863 17.235 6.33383 17.1482C5.7307 16.6922 4.95235 16.5407 4.19762 16.7318C3.39649 16.9354 2.74132 17.4818 2.40054 18.2317L0.0359561 23.4341C-0.0332307 23.5861 -0.000840384 23.7649 0.117143 23.8825C0.193548 23.9593 0.295922 23.9997 0.399937 23.9997C0.455952 23.9997 0.512342 23.9877 0.565545 23.9637L5.76796 21.5987C6.51749 21.2583 7.06386 20.6031 7.26743 19.802C7.45901 19.0481 7.30742 18.2693 6.85142 17.6658ZM6.49227 19.6052C6.34907 20.1696 5.96432 20.6307 5.43717 20.8707L1.20548 22.7942L3.12893 18.5621C3.3685 18.035 3.83008 17.6502 4.39444 17.507C4.54285 17.4694 4.692 17.451 4.83919 17.451C5.08838 17.451 5.33194 17.5042 5.55393 17.6078L5.17317 18.2818C5.08477 18.4381 5.11158 18.6345 5.23875 18.7613C5.36592 18.8889 5.56232 18.9153 5.71832 18.8269L6.39228 18.4457C6.55625 18.7985 6.59347 19.206 6.49227 19.6052Z" fill="#D9B346"/>
<path d="M23.9798 0.386102C23.9634 0.191338 23.809 0.0369335 23.6142 0.0205275C23.4582 0.00810571 19.7505 -0.272673 15.39 1.73599C15.2712 1.79037 15.1868 1.89996 15.1636 2.02877C15.1404 2.15758 15.182 2.28954 15.2744 2.38193L21.618 8.72546C21.6936 8.80107 21.7956 8.84264 21.9007 8.84264C21.9243 8.84264 21.948 8.84063 21.9715 8.83664C22.1003 8.81344 22.2095 8.72907 22.2643 8.61024C24.2734 4.24978 23.9926 0.541679 23.9798 0.386102ZM21.7711 7.74672L16.2532 2.22874C19.4453 0.881238 22.2407 0.788426 23.1962 0.804457C23.2122 1.76079 23.1222 4.54739 21.7711 7.74672Z" fill="#D9B346"/>
<path d="M17.6651 6.33525C16.3199 4.99014 14.1317 4.99014 12.7866 6.33525C11.4415 7.68036 11.4415 9.86855 12.7866 11.2137C13.459 11.8864 14.3425 12.2224 15.2257 12.2224C16.1092 12.2224 16.9923 11.886 17.6651 11.2137C19.0102 9.86855 19.0102 7.68031 17.6651 6.33525ZM17.0995 10.6481C16.0664 11.6812 14.3853 11.6812 13.3522 10.6481C12.3191 9.61496 12.3191 7.9339 13.3522 6.90079C13.8686 6.38442 14.5473 6.12605 15.2257 6.12605C15.9041 6.12605 16.5828 6.38442 17.0996 6.90079C18.1326 7.9339 18.1326 9.61496 17.0995 10.6481Z" fill="#D9B346"/>
<path d="M16.0192 9.57004C15.5808 10.0092 14.8673 10.0088 14.4285 9.57004C13.9901 9.1313 13.9901 8.41815 14.4285 7.97936C14.8669 7.54099 15.5804 7.54061 16.0192 7.97936C16.1752 8.13573 16.4288 8.13573 16.5848 7.97936C16.7411 7.82298 16.7411 7.57019 16.5848 7.41381C15.8348 6.66349 14.6133 6.66349 13.863 7.41381C13.1126 8.16414 13.1126 9.38526 13.863 10.1356C14.2382 10.5108 14.7313 10.6984 15.2241 10.6984C15.7172 10.6984 16.21 10.5108 16.5848 10.1356C16.7411 9.97921 16.7411 9.72642 16.5848 9.57004C16.4288 9.41367 16.1752 9.41367 16.0192 9.57004Z" fill="#D9B346"/>
</g>
<defs>
<clipPath id="clip0_2_108">
<rect width="24" height="24" fill="white"/>
</clipPath>
</defs>
</svg>
