<svg width="24" height="24" viewBox="0 0 24 24" fill="none" xmlns="http://www.w3.org/2000/svg">
<g clip-path="url(#clip0_2_155)">
<path d="M14.0131 8.65332C12.8849 8.65332 11.9996 9.91032 11.9996 9.91032C11.9996 9.91032 11.1646 8.65332 9.98559 8.65332C8.83884 8.65332 7.90237 9.59837 7.84106 10.7426C7.80656 11.389 8.0151 11.881 8.30896 12.3266C8.89617 13.2168 12.0034 15.3475 12.0034 15.3475C12.0034 15.3475 15.0989 13.2246 15.69 12.3266C15.9845 11.879 16.1925 11.389 16.1578 10.7426C16.0965 9.59837 15.16 8.65332 14.0131 8.65332Z" fill="#FBE593"/>
<path d="M11.9991 21.4469H11.9991C11.7402 21.4469 11.5303 21.6569 11.5304 21.9157L11.5305 22.3778C11.5305 22.6367 11.7404 22.8465 11.9992 22.8465H11.9993C12.2582 22.8464 12.468 22.6365 12.468 22.3776L12.4679 21.9156C12.4678 21.6567 12.258 21.4469 11.9991 21.4469Z" fill="#D9B346"/>
<path d="M14.7448 20.5848C14.5618 20.4017 14.265 20.4017 14.0819 20.5848C13.8988 20.7678 13.8988 21.0647 14.0819 21.2477L14.2846 21.4505C14.3761 21.542 14.4961 21.5878 14.616 21.5878C14.736 21.5878 14.856 21.542 14.9475 21.4505C15.1305 21.2674 15.1305 20.9706 14.9475 20.7875L14.7448 20.5848Z" fill="#D9B346"/>
<path d="M9.25483 20.5842L9.0521 20.7869C8.86905 20.97 8.86905 21.2668 9.0521 21.4499C9.14364 21.5414 9.2636 21.5872 9.38355 21.5872C9.5035 21.5872 9.6235 21.5414 9.715 21.4499L9.91774 21.2471C10.1008 21.0641 10.1008 20.7673 9.91774 20.5842C9.73474 20.4011 9.43788 20.4011 9.25483 20.5842Z" fill="#D9B346"/>
<path d="M12.0008 2.55316H12.0009C12.2598 2.55311 12.4696 2.3432 12.4695 2.08431L12.4695 1.62222C12.4694 1.36338 12.2595 1.15356 12.0007 1.15356H12.0006C11.7417 1.15361 11.5319 1.36352 11.532 1.62241L11.5321 2.0845C11.5321 2.34334 11.742 2.55316 12.0008 2.55316Z" fill="#D9B346"/>
<path d="M9.71505 2.54976C9.532 2.36671 9.23519 2.36671 9.0521 2.54976C8.86905 2.73281 8.86905 3.02962 9.0521 3.21272L9.25483 3.41545C9.34638 3.507 9.46633 3.55275 9.58628 3.55275C9.70624 3.55275 9.82624 3.507 9.91774 3.41545C10.1008 3.2324 10.1008 2.93559 9.91774 2.7525L9.71505 2.54976Z" fill="#D9B346"/>
<path d="M14.2856 2.55028L14.0828 2.75302C13.8998 2.93606 13.8998 3.23288 14.0828 3.41597C14.1744 3.50752 14.2943 3.55327 14.4143 3.55327C14.5342 3.55327 14.6542 3.50752 14.7457 3.41597L14.9485 3.21324C15.1315 3.03019 15.1315 2.73338 14.9485 2.55028C14.7654 2.36719 14.4686 2.36719 14.2856 2.55028Z" fill="#D9B346"/>
<path d="M7.97016 4.91875C7.97016 4.42243 7.77689 3.95584 7.42598 3.60489C7.07503 3.25393 6.60844 3.06067 6.11212 3.06067C5.61586 3.06067 5.14922 3.25393 4.79827 3.60489C3.276 5.12715 2.20064 7.02681 1.68117 9.10801C0.677672 9.68219 0 10.7635 0 12.0001C0 13.2367 0.677672 14.318 1.68117 14.8922C2.20064 16.9734 3.276 18.873 4.79827 20.3953C5.14922 20.7463 5.61581 20.9395 6.11212 20.9395C6.60844 20.9395 7.07503 20.7463 7.42598 20.3953C8.15044 19.6709 8.15044 18.4921 7.42598 17.7676C6.52664 16.8683 5.84784 15.7656 5.45142 14.5638C6.18858 13.9526 6.65887 13.0303 6.65887 12.0001C6.65887 10.9699 6.18858 10.0476 5.45142 9.43637C5.84784 8.23469 6.52664 7.13195 7.42598 6.23261C7.77689 5.88165 7.97016 5.41506 7.97016 4.91875ZM6.76303 18.4305C7.12195 18.7894 7.12195 19.3734 6.76303 19.7324C6.58917 19.9062 6.35798 20.002 6.11212 20.002C5.86627 20.002 5.63508 19.9062 5.46117 19.7324C4.21106 18.4823 3.28833 16.956 2.76398 15.2815C2.94778 15.313 3.13673 15.3295 3.32939 15.3295C3.79139 15.3295 4.23173 15.2349 4.63205 15.064C5.08214 16.3243 5.81203 17.4795 6.76303 18.4305ZM5.72137 12.0001C5.72137 13.319 4.64836 14.392 3.32944 14.392C2.01052 14.392 0.9375 13.319 0.9375 12.0001C0.9375 10.6812 2.01052 9.60817 3.32944 9.60817C4.64836 9.60817 5.72137 10.6812 5.72137 12.0001ZM6.76303 5.56965C5.81198 6.5207 5.08209 7.67593 4.63205 8.93608C4.23173 8.76526 3.79144 8.67062 3.32939 8.67062C3.13669 8.67062 2.94778 8.68708 2.76398 8.71867C3.28828 7.04411 4.21106 5.51786 5.46117 4.26779C5.63503 4.09393 5.86622 3.99817 6.11208 3.99817C6.35794 3.99817 6.58917 4.09393 6.76303 4.26779C6.93689 4.44165 7.03266 4.67284 7.03266 4.9187C7.03266 5.16456 6.93694 5.39579 6.76303 5.56965Z" fill="#D9B346"/>
<path d="M23.9993 12.0001C23.9993 10.7635 23.3216 9.68219 22.3181 9.10801C21.7987 7.02686 20.7233 5.1272 19.2011 3.60489C18.8501 3.25393 18.3835 3.06067 17.8872 3.06067C17.3909 3.06067 16.9243 3.25393 16.5733 3.60489C15.8489 4.32934 15.8489 5.50811 16.5733 6.23261C17.4727 7.1319 18.1515 8.23464 18.5479 9.43637C17.8107 10.0476 17.3405 10.9699 17.3405 12.0001C17.3405 13.0303 17.8107 13.9526 18.5479 14.5638C18.1515 15.7655 17.4727 16.8683 16.5733 17.7676C16.2224 18.1186 16.0292 18.5852 16.0292 19.0815C16.0292 19.5778 16.2224 20.0444 16.5733 20.3953C16.9243 20.7463 17.3909 20.9395 17.8872 20.9395C18.3835 20.9395 18.8501 20.7463 19.2011 20.3953C20.7233 18.8731 21.7987 16.9734 22.3181 14.8922C23.3216 14.318 23.9993 13.2367 23.9993 12.0001ZM17.2363 5.5697C16.8774 5.21078 16.8774 4.62676 17.2363 4.26784C17.4102 4.09398 17.6413 3.99822 17.8872 3.99822C18.1331 3.99822 18.3642 4.09398 18.5381 4.26784C19.7883 5.51795 20.711 7.0442 21.2353 8.71876C21.0515 8.68717 20.8626 8.67072 20.6699 8.67072C20.2079 8.67072 19.7676 8.76531 19.3673 8.93617C18.9172 7.67593 18.1873 6.5207 17.2363 5.5697ZM18.2779 12.0001C18.2779 10.6812 19.351 9.60817 20.6699 9.60817C21.9888 9.60817 23.0618 10.6812 23.0618 12.0001C23.0618 13.319 21.9888 14.392 20.6699 14.392C19.351 14.392 18.2779 13.319 18.2779 12.0001ZM18.5381 19.7324C18.3643 19.9062 18.1331 20.002 17.8872 20.002C17.6414 20.002 17.4102 19.9062 17.2363 19.7324C17.0624 19.5585 16.9667 19.3273 16.9667 19.0815C16.9667 18.8356 17.0624 18.6044 17.2363 18.4306C18.1873 17.4795 18.9172 16.3243 19.3673 15.0641C19.7676 15.235 20.2079 15.3296 20.6699 15.3296C20.8626 15.3296 21.0515 15.3131 21.2353 15.2815C20.711 16.9561 19.7882 18.4823 18.5381 19.7324Z" fill="#D9B346"/>
</g>
<defs>
<clipPath id="clip0_2_155">
<rect width="24" height="24" fill="white"/>
</clipPath>
</defs>
</svg>
