<svg width="24" height="24" viewBox="0 0 24 24" fill="none" xmlns="http://www.w3.org/2000/svg">
<path d="M23.1321 7.56445L21.8274 8.0918C22.3356 9.34697 22.5938 10.6777 22.5938 12.0469C22.5938 17.8628 17.8628 22.5938 12.0469 22.5938C9.48192 22.5938 7.0237 21.649 5.1128 19.9798L7.21838 19.6727L7.01648 18.2809L2.90625 18.8797V22.5938H4.3125V21.1402C6.46073 22.9658 9.19369 24 12.0469 24C18.6373 24 24 18.638 24 12.0469C24 10.4957 23.7075 8.98786 23.1321 7.56445Z" fill="#D9B346"/>
<path d="M11.9531 1.40625C14.5181 1.40625 16.9763 2.35097 18.8872 4.02023L16.7816 4.32727L16.9835 5.71908L21.0938 5.1203V1.40625H19.6875V2.8598C17.5393 1.03416 14.8063 0 11.9531 0C5.36269 0 0 5.36203 0 11.9531C0 13.5043 0.2925 15.0121 0.867938 16.4355L2.17256 15.9082C1.66444 14.653 1.40625 13.3223 1.40625 11.9531C1.40625 6.13725 6.13725 1.40625 11.9531 1.40625Z" fill="#D9B346"/>
<path d="M18.3281 12.7031V11.2969H16.8508C16.7305 10.4671 16.4094 9.70852 15.928 9.06605L16.9713 8.02228L15.977 7.02802L14.9338 8.07178C14.2913 7.59052 13.5328 7.26942 12.7031 7.14919V5.67188H11.2969V7.14919C10.4672 7.26942 9.70866 7.59052 9.06623 8.07178L8.02298 7.02802L7.02872 8.02228L8.07197 9.06605C7.59061 9.70847 7.26952 10.4671 7.14919 11.2969H5.67188V12.7031H7.14919C7.26952 13.5329 7.59061 14.2915 8.07197 14.934L7.02872 15.9777L8.02298 16.972L9.06623 15.9282C9.70866 16.4095 10.4672 16.7306 11.2969 16.8508V18.3281H12.7031V16.8508C13.5328 16.7306 14.2913 16.4095 14.9338 15.9282L15.977 16.972L16.9713 15.9777L15.928 14.934C16.4094 14.2915 16.7305 13.5329 16.8508 12.7031H18.3281ZM12 14.1094C10.8368 14.1094 9.89062 13.1632 9.89062 12C9.89062 10.8368 10.8368 9.89062 12 9.89062C13.1632 9.89062 14.1094 10.8368 14.1094 12C14.1094 13.1632 13.1632 14.1094 12 14.1094Z" fill="#D9B346"/>
</svg>
