<svg width="106" height="106" viewBox="0 0 106 106" fill="none" xmlns="http://www.w3.org/2000/svg">
<path fill-rule="evenodd" clip-rule="evenodd" d="M53 106C82.2711 106 106 82.2711 106 53C106 23.7289 82.2711 0 53 0C23.7289 0 0 23.7289 0 53C0 82.2711 23.7289 106 53 106Z" fill="#D9B346"/>
<path d="M59.2739 54.5602C59.7718 54.5602 60.4689 54.2116 60.4689 54.2116C59.6224 56.4025 57.6307 57.4481 55.4398 58.1452V60.7344C58.1784 60.2365 65 56.1037 65 50.7759C65 47.6888 62.7095 45 59.6224 45C56.834 45 54.444 47.0913 54.444 49.8797C54.444 52.5187 56.6349 54.5602 59.2739 54.5602ZM45.8299 54.5602C43.1909 54.5602 41 52.5187 41 49.8797C41 47.0913 43.39 45 46.1784 45C49.2656 45 51.556 47.6888 51.556 50.7759C51.556 56.1037 44.7344 60.2365 41.9959 60.7344V58.1452C44.1867 57.4481 46.1784 56.4025 47.0249 54.2116L46.9539 54.2453C46.7641 54.3328 46.232 54.5602 45.8299 54.5602Z" fill="white"/>
</svg>
